<svg width="52" height="52" viewBox="0 0 52 52" xmlns="http://www.w3.org/2000/svg"><g fill="none" fill-rule="evenodd"><path fill="#F3EB59" d="M25.942 8.973l-8.474 8.474-8.472-8.474L17.468.501z"/><path fill="#95D6E5" d="M51.966 17.447l-8.474 8.473-8.472-8.473 8.472-8.474z"/><path fill="#F69973" d="M17.469 34.997L8.996 43.47.522 34.997l8.474-8.472z"/><path fill="#745DA7" d="M43.493 43.47l-8.473 8.475-8.474-8.474 8.474-8.473z"/><path fill="#F9D84F" d="M17.469 34.997l-8.473-8.472V8.974l8.473 8.474z"/><path fill="#62C4B8" d="M43.493 43.47l-8.473-8.472v-17.55l8.473 8.473z"/><path fill="#3BC2E5" d="M17.469 17.447l8.474-8.474h17.55l-8.473 8.474z"/><path fill="#F16F74" d="M8.996 43.47l8.472-8.472h17.55l-8.471 8.473z"/></g></svg>